<svg xmlns="http://www.w3.org/2000/svg" aria-hidden="true" style="position:absolute;width:0;height:0;overflow:hidden">
  <defs>
   <symbol id="icon-instagram" viewBox="0 0 32 32">
<path d="M28.718 10.756c-0.016-1.074-0.215-2.14-0.596-3.145-0.667-1.716-2.024-3.073-3.743-3.737-0.994-0.373-2.044-0.573-3.108-0.596-1.368-0.061-1.801-0.078-5.273-0.078s-3.916 0-5.274 0.078c-1.062 0.023-2.112 0.223-3.106 0.596-1.719 0.664-3.078 2.021-3.743 3.737-0.374 0.992-0.576 2.041-0.596 3.101-0.061 1.367-0.080 1.8-0.080 5.265s0 3.909 0.080 5.265c0.021 1.062 0.222 2.109 0.596 3.104 0.667 1.715 2.024 3.071 3.744 3.736 0.989 0.386 2.040 0.604 3.106 0.639 1.369 0.061 1.803 0.080 5.274 0.080s3.916 0 5.274-0.080c1.062-0.021 2.112-0.221 3.108-0.595 1.719-0.666 3.076-2.022 3.743-3.737 0.374-0.994 0.574-2.041 0.596-3.104 0.061-1.365 0.080-1.798 0.080-5.265-0.003-3.466-0.003-3.906-0.082-5.264zM15.99 22.531c-3.631 0-6.572-2.936-6.572-6.561s2.941-6.561 6.572-6.561c3.628 0 6.572 2.936 6.572 6.561s-2.944 6.561-6.572 6.561zM22.824 10.696c-0.849 0-1.532-0.684-1.532-1.53s0.684-1.53 1.532-1.53c0.846 0 1.531 0.684 1.531 1.53s-0.685 1.53-1.531 1.53z"></path>
<path d="M15.992 19.976c2.211 0 4.004-1.793 4.004-4.004s-1.793-4.004-4.004-4.004c-2.211 0-4.004 1.793-4.004 4.004s1.793 4.004 4.004 4.004z"></path>
</symbol>
    <symbol id="icon-fb" viewBox="0 0 14 32">
      <path d="M11.383 1.395h1.234v4.629h-1.543c-.617 0-1.234 0-1.543.309-.309.309-.309.617-.309 1.337v1.646h3.394v3.909H9.222v16.971H3.976V13.122H1.199V9.213h2.777V7.876c0-2.263.309-3.909.926-4.629.926-1.337 2.777-1.954 5.554-1.954.309.103.617.103.926.103z"/>
    </symbol>
    <symbol id="icon-youtube" viewBox="0 0 43 32">
      <path d="M33.693 1c-2.04-.12-6.24-.24-12.6-.24h-.84c-6.12 0-10.2.12-12.24.36-2.76.24-4.68.96-5.76 1.92-.96.84-1.68 2.4-1.92 4.44-.12 1.32-.24 4.08-.24 8.28v.6c0 3.96.12 6.72.36 8.04.36 1.92.96 3.36 2.16 4.2 1.2.96 3.24 1.56 6.12 1.8 2.04.12 6.24.24 12.6.24h.84c6.12 0 10.2-.12 12.24-.36 2.76-.24 4.68-.96 5.76-1.92.96-.84 1.68-2.4 1.92-4.44.12-1.32.24-4.08.24-8.28v-.6c0-3.96-.12-6.72-.36-8.04-.36-1.92-.96-3.36-2.16-4.2-1.2-.96-3.24-1.56-6.12-1.8zm-4.679 14.76-13.2 7.92V7.84l13.2 7.92z"/>
    </symbol>
    <symbol id="icon-close-menu" viewBox="0 0 32 32">
      <path stroke-linecap="round" stroke-linejoin="round" stroke-width="2.353" d="M24 8 8 24M8 8l16 16"/>
    </symbol>
    <symbol id="icon-open-menu" viewBox="0 0 32 32">
      <path stroke-linecap="round" stroke-linejoin="round" stroke-width="2.353" d="M4 11.333h24M4 20.667h24"/>
    </symbol>
  </defs>
</svg>
