<svg xmlns="http://www.w3.org/2000/svg" aria-hidden="true" style="position:absolute;width:0;height:0;overflow:hidden">
  <defs>
    <symbol id="icon-icon-youtube" viewBox="0 0 32 32">
      <path stroke-width=".941" d="M9.412.471h13.176a8.941 8.941 0 0 1 8.941 8.941v13.176a8.941 8.941 0 0 1-8.941 8.941H9.412a8.941 8.941 0 0 1-8.941-8.941V9.412A8.941 8.941 0 0 1 9.412.471z"/>
      <path d="M20.362 10.706c-.72-.042-2.202-.085-4.447-.085h-.296c-2.16 0-3.6.042-4.32.127-.974.085-1.652.339-2.033.678-.339.296-.593.847-.678 1.567-.042.466-.085 1.44-.085 2.922v.212c0 1.398.042 2.372.127 2.838.127.678.339 1.186.762 1.482.424.339 1.143.551 2.16.635.72.042 2.202.085 4.447.085h.296c2.16 0 3.6-.042 4.32-.127.974-.085 1.652-.339 2.033-.678.339-.296.593-.847.678-1.567.042-.466.085-1.44.085-2.922v-.212c0-1.398-.042-2.372-.127-2.838-.127-.678-.339-1.186-.762-1.482-.423-.339-1.144-.551-2.16-.635zm-1.651 5.209-4.659 2.795v-5.591l4.659 2.795z"/>
    </symbol>
    <symbol id="icon-icon-insta" viewBox="0 0 32 32">
      <path stroke-width=".941" d="M9.412.471h13.176a8.941 8.941 0 0 1 8.941 8.941v13.176a8.941 8.941 0 0 1-8.941 8.941H9.412a8.941 8.941 0 0 1-8.941-8.941V9.412A8.941 8.941 0 0 1 9.412.471z"/>
      <path d="M22.733 13.224a4.907 4.907 0 0 0-.315-1.665 3.466 3.466 0 0 0-1.982-1.978 4.967 4.967 0 0 0-1.645-.316c-.724-.032-.954-.041-2.791-.041s-2.073 0-2.792.041a4.977 4.977 0 0 0-1.645.316 3.468 3.468 0 0 0-1.982 1.978 4.9 4.9 0 0 0-.315 1.642c-.032.723-.042.953-.042 2.787s0 2.069.042 2.788c.011.562.117 1.117.315 1.643a3.464 3.464 0 0 0 1.982 1.977c.524.204 1.08.32 1.645.338.725.032.954.042 2.792.042s2.073 0 2.792-.042a4.95 4.95 0 0 0 1.645-.315 3.471 3.471 0 0 0 1.982-1.978 4.93 4.93 0 0 0 .315-1.643c.032-.723.042-.952.042-2.787-.001-1.835-.001-2.068-.044-2.787zm-6.738 6.234c-1.922 0-3.479-1.555-3.479-3.473s1.557-3.473 3.479-3.473c1.921 0 3.479 1.555 3.479 3.473s-1.559 3.473-3.479 3.473zm3.618-6.266a.81.81 0 1 1 0-1.62.81.81 0 1 1 0 1.62z"/>
      <path d="M15.996 18.105a2.12 2.12 0 1 0 0-4.24 2.12 2.12 0 0 0 0 4.24z"/>
    </symbol>
    <symbol id="icon-icon-facebook" viewBox="0 0 32 32">
      <path stroke-width=".941" d="M9.412.471h13.176a8.941 8.941 0 0 1 8.941 8.941v13.176a8.941 8.941 0 0 1-8.941 8.941H9.412a8.941 8.941 0 0 1-8.941-8.941V9.412A8.941 8.941 0 0 1 9.412.471z"/>
      <path d="M17.864 9.986h.508v1.906h-.635c-.254 0-.508 0-.635.127s-.127.254-.127.551v.678h1.398v1.609h-1.398v6.988h-2.16v-7.031h-1.144v-1.609h1.144v-.551c0-.932.127-1.609.381-1.906.381-.551 1.144-.805 2.287-.805.127.042.254.042.381.042z"/>
    </symbol>
    <symbol id="icon-close-menu" viewBox="0 0 32 32">
      <path stroke-linecap="round" stroke-linejoin="round" stroke-width="2.353" d="M24 8 8 24M8 8l16 16"/>
    </symbol>
    <symbol id="icon-open-menu" viewBox="0 0 32 32">
      <path stroke-linecap="round" stroke-linejoin="round" stroke-width="2.353" d="M4 11.333h24M4 20.667h24"/>
    </symbol>
  </defs>
</svg>
