<svg xmlns="http://www.w3.org/2000/svg" aria-hidden="true" style="position:absolute;width:0;height:0;overflow:hidden">
  <defs>
    <symbol id="icon-fb" viewBox="0 0 14 32">
      <path d="M11.383 1.395h1.234v4.629h-1.543c-.617 0-1.234 0-1.543.309-.309.309-.309.617-.309 1.337v1.646h3.394v3.909H9.222v16.971H3.976V13.122H1.199V9.213h2.777V7.876c0-2.263.309-3.909.926-4.629.926-1.337 2.777-1.954 5.554-1.954.309.103.617.103.926.103z"/>
    </symbol>
    <symbol id="icon-insta" viewBox="0 0 13 32">
      <path d="M11.093 1.92h1.28v4.8h-1.6c-.64 0-1.28 0-1.6.32-.32.32-.32.64-.32 1.387v1.707h3.52v4.053h-3.52v17.6h-5.44V14.08H.533v-4.053h2.88V8.64c0-2.347.32-4.053.96-4.8.96-1.387 2.88-2.027 5.76-2.027.32.107.64.107.96.107z"/>
    </symbol>
    <symbol id="icon-youtube" viewBox="0 0 43 32">
      <path d="M33.693 1c-2.04-.12-6.24-.24-12.6-.24h-.84c-6.12 0-10.2.12-12.24.36-2.76.24-4.68.96-5.76 1.92-.96.84-1.68 2.4-1.92 4.44-.12 1.32-.24 4.08-.24 8.28v.6c0 3.96.12 6.72.36 8.04.36 1.92.96 3.36 2.16 4.2 1.2.96 3.24 1.56 6.12 1.8 2.04.12 6.24.24 12.6.24h.84c6.12 0 10.2-.12 12.24-.36 2.76-.24 4.68-.96 5.76-1.92.96-.84 1.68-2.4 1.92-4.44.12-1.32.24-4.08.24-8.28v-.6c0-3.96-.12-6.72-.36-8.04-.36-1.92-.96-3.36-2.16-4.2-1.2-.96-3.24-1.56-6.12-1.8zm-4.679 14.76-13.2 7.92V7.84l13.2 7.92z"/>
    </symbol>
  </defs>
</svg>
