<svg xmlns="http://www.w3.org/2000/svg" aria-hidden="true" style="position:absolute;width:0;height:0;overflow:hidden">
  <defs>
    <symbol id="icon-instagram" viewBox="0 0 32 32">
      <path
        d="M28.718 10.756a9.264 9.264 0 0 0-.596-3.145 6.547 6.547 0 0 0-3.743-3.737 9.42 9.42 0 0 0-3.108-.596c-1.367-.061-1.801-.078-5.273-.078s-3.916 0-5.274.078a9.418 9.418 0 0 0-3.106.596 6.541 6.541 0 0 0-3.743 3.737 9.288 9.288 0 0 0-.596 3.101c-.061 1.367-.08 1.8-.08 5.265s0 3.909.08 5.265a9.34 9.34 0 0 0 .596 3.104 6.548 6.548 0 0 0 3.744 3.735 9.37 9.37 0 0 0 3.106.639c1.369.061 1.803.079 5.274.079s3.917 0 5.274-.079a9.357 9.357 0 0 0 3.108-.595 6.555 6.555 0 0 0 3.743-3.737 9.346 9.346 0 0 0 .596-3.104c.061-1.365.079-1.798.079-5.265-.003-3.466-.003-3.906-.082-5.264zM15.99 22.531c-3.631 0-6.572-2.936-6.572-6.561s2.941-6.561 6.572-6.561c3.628 0 6.572 2.936 6.572 6.561s-2.944 6.561-6.572 6.561zm6.834-11.835a1.53 1.53 0 1 1 0-3.06 1.53 1.53 0 1 1 0 3.06z" />
      <path d="M15.992 19.976a4.004 4.004 0 1 0 0-8.009 4.004 4.004 0 0 0 0 8.009z" />
    </symbol>


    <symbol id="icon-fb" viewBox="0 0 14 32">
      <path
        d="M11.383 1.395h1.234v4.629h-1.543c-.617 0-1.234 0-1.543.309-.309.309-.309.617-.309 1.337v1.646h3.394v3.909H9.222v16.971H3.976V13.122H1.199V9.213h2.777V7.876c0-2.263.309-3.909.926-4.629.926-1.337 2.777-1.954 5.554-1.954.309.103.617.103.926.103z" />
    </symbol>
    <symbol id="icon-youtube" viewBox="0 0 43 32">
      <path
        d="M33.693 1c-2.04-.12-6.24-.24-12.6-.24h-.84c-6.12 0-10.2.12-12.24.36-2.76.24-4.68.96-5.76 1.92-.96.84-1.68 2.4-1.92 4.44-.12 1.32-.24 4.08-.24 8.28v.6c0 3.96.12 6.72.36 8.04.36 1.92.96 3.36 2.16 4.2 1.2.96 3.24 1.56 6.12 1.8 2.04.12 6.24.24 12.6.24h.84c6.12 0 10.2-.12 12.24-.36 2.76-.24 4.68-.96 5.76-1.92.96-.84 1.68-2.4 1.92-4.44.12-1.32.24-4.08.24-8.28v-.6c0-3.96-.12-6.72-.36-8.04-.36-1.92-.96-3.36-2.16-4.2-1.2-.96-3.24-1.56-6.12-1.8zm-4.679 14.76-13.2 7.92V7.84l13.2 7.92z" />
    </symbol>
    <symbol id="icon-close-menu" viewBox="0 0 32 32">
<path d="M32 3.223l-3.223-3.223-12.777 12.777-12.777-12.777-3.223 3.223 12.777 12.777-12.777 12.777 3.223 3.223 12.777-12.777 12.777 12.777 3.223-3.223-12.777-12.777 12.777-12.777z"></path>
</symbol>

    <symbol id="icon-open-menu" viewBox="0 0 32 32">
<path d="M3.667 10.186c-0.274 0.090-0.5 0.261-0.657 0.485l-0.003 0.004c-0.139 0.201-0.154 0.265-0.154 0.658s0.014 0.457 0.156 0.661c0.086 0.124 0.266 0.29 0.4 0.369l0.244 0.143h24.693l0.244-0.143c0.134-0.078 0.314-0.245 0.4-0.369 0.142-0.204 0.156-0.266 0.156-0.661s-0.014-0.457-0.156-0.662c-0.111-0.146-0.243-0.269-0.394-0.365l-0.006-0.004-0.244-0.143-12.266-0.009c-6.746-0.005-12.332 0.010-12.413 0.035zM3.667 19.519c-0.274 0.091-0.5 0.262-0.657 0.485l-0.003 0.004c-0.139 0.201-0.154 0.264-0.154 0.658 0 0.395 0.014 0.457 0.156 0.662 0.086 0.124 0.266 0.29 0.4 0.369l0.244 0.143h24.693l0.244-0.143c0.134-0.079 0.314-0.245 0.4-0.369 0.142-0.205 0.156-0.266 0.156-0.662s-0.014-0.457-0.156-0.661c-0.11-0.146-0.243-0.269-0.394-0.365l-0.006-0.004-0.244-0.143-12.266-0.010c-6.746-0.005-12.332 0.011-12.413 0.035z"></path>
</symbol>
  </defs>
</svg>

